<svg id="Capa_1" data-name="Capa 1" xmlns="http://www.w3.org/2000/svg" xmlns:xlink="http://www.w3.org/1999/xlink" viewBox="0 0 1937 1099"><defs><style>.cls-1,.cls-7{fill:none;}.cls-2{fill:#ffc107;}.cls-3{clip-path:url(#clip-path);}.cls-4,.cls-6{fill:#fff;}.cls-5{fill:#1d1d1b;}.cls-6,.cls-7{stroke:#000;stroke-miterlimit:10;stroke-width:3px;}</style><clipPath id="clip-path" transform="translate(7 13)"><rect class="cls-1" x="149.51" y="135.77" width="1621.75" height="808.37"/></clipPath></defs><rect class="cls-2" x="0.5" y="0.5" width="1936" height="1098"/><path d="M1929-12V1085H-6V-12H1929m1-1H-7V1086H1930V-13Z" transform="translate(7 13)"/><g class="cls-3"><path d="M973,454.3H452.66a38.87,38.87,0,0,0,1.87-66.38H973a33.19,33.19,0,1,1,0,66.38m0-72.11H440a39.9,39.9,0,0,0-6.6-.57H188.42a39.22,39.22,0,0,0,1.72,78.4H973a38.92,38.92,0,1,0,0-77.83" transform="translate(7 13)"/><path class="cls-4" d="M286.46,440.11q-7.33,0-11.62-4.15t-4.29-12v-9.38q0-7.84,4.29-12t11.62-4.15q7.2,0,11.13,4t3.92,10.93v.35h-6.12v-.52a9.83,9.83,0,0,0-2.21-6.63Q291,404,286.46,404a9.3,9.3,0,0,0-7.16,2.78q-2.57,2.78-2.57,7.69v9.62a10.9,10.9,0,0,0,2.57,7.66,9.25,9.25,0,0,0,7.16,2.81q4.52,0,6.72-2.61a9.85,9.85,0,0,0,2.21-6.61v-1h6.12v.8q0,6.93-3.92,10.93t-11.13,4" transform="translate(7 13)"/><path class="cls-4" d="M317.06,440.11a4.58,4.58,0,0,1-3.35-1.32,4.49,4.49,0,0,1-1.35-3.37,4.41,4.41,0,0,1,1.35-3.35,4.63,4.63,0,0,1,3.35-1.29,4.57,4.57,0,0,1,3.34,1.32,4.44,4.44,0,0,1,1.35,3.32,4.49,4.49,0,0,1-1.35,3.37,4.57,4.57,0,0,1-3.34,1.32" transform="translate(7 13)"/></g><polygon class="cls-4" points="340.19 452.31 329.03 412.25 335.44 412.25 345.17 448.42 345.92 448.42 355.58 412.25 361.99 412.25 350.89 452.31 340.19 452.31"/><g class="cls-3"><path class="cls-4" d="M410.26,421.56l9.84-1-9.83-1.06a11.22,11.22,0,0,1-10-10l-1-9.83-1.06,9.86a11.22,11.22,0,0,1-10,10l-9.82,1,9.83,1a11.22,11.22,0,0,1,10,10l1,9.83,1-9.79a11.23,11.23,0,0,1,10-10" transform="translate(7 13)"/><path class="cls-4" d="M231.6,422.71l9.85-1-9.83-1.05a11.22,11.22,0,0,1-10-10l-1-9.84-1.05,9.87a11.23,11.23,0,0,1-10,10l-9.81,1,9.83,1a11.21,11.21,0,0,1,10,10l1,9.82,1-9.79a11.23,11.23,0,0,1,10-10" transform="translate(7 13)"/><path d="M480.27,431.07a21.1,21.1,0,0,0,9.46,2.27c5.42,0,8.93-3.91,10.27-11.32l4-22.65h8l-4,22.88c-2.1,11.79-9.4,18.85-19.61,18.85a26.51,26.51,0,0,1-11.39-2.62Z" transform="translate(7 13)"/><path d="M545.23,419.8c1.35-7.88-2-13.6-9.39-13.6s-12.79,5.72-14.13,13.6,2,13.54,9.34,13.54,12.78-5.72,14.18-13.54m-31.92,0c2.22-12.84,12-21.3,23.87-21.3s18.68,8.46,16.46,21.3-12.08,21.3-23.93,21.3-18.68-8.52-16.4-21.3" transform="translate(7 13)"/></g><path d="M579.61,424.41l-2.74-18.56-9.34,18.56Zm3.45-25,7.58,40.86h-8.87l-1.28-8.35H564l-4.2,8.35H550.9l22-40.86Z" transform="translate(7 13)"/><g class="cls-3"><path d="M627.94,419.8c1.35-7.88-2-13.6-9.39-13.6s-12.79,5.72-14.13,13.6,2,13.54,9.34,13.54,12.78-5.72,14.18-13.54m-7.41,34.9c-9.28.12-13.54-.7-13.6-6.53.06-2.4,2-5.55,3.21-7.18-10.45-1.05-16.28-9.22-14.12-21.19,2.22-12.84,12-21.3,23.87-21.3s18.68,8.46,16.46,21.3c-2.16,12-10.86,20.2-21.71,21.19-.65,1.05-1.81,3.15-1.64,4.26.24,1.34,1.75,1.75,3.85,1.75,1.52,0,3.33-.23,5.08-.35Z" transform="translate(7 13)"/><path d="M643.53,399.37h8l-3.86,21.89c-1.34,7.71,1.06,12.08,6.6,12.08s9.46-4.37,10.8-12.08l3.85-21.89h8L673,421.5c-2.1,12.08-9.86,19.6-20.13,19.6s-15.35-7.52-13.19-19.6Z" transform="translate(7 13)"/></g><path d="M686.72,395.23l4.21-10.45h4.67l-5.14,10.45Zm-2.8,4.14h8l-7.24,40.86h-7.94Z" transform="translate(7 13)"/><polygon points="706.51 412.38 714.5 412.38 727.69 439.63 732.54 412.38 740.53 412.38 733.3 453.23 725.36 453.23 712.11 425.92 707.26 453.23 699.33 453.23 706.51 412.38"/><path d="M772.88,424.41l-2.75-18.56-9.34,18.56Zm3.44-25,7.59,40.86H775l-1.28-8.35H757.29l-4.2,8.35h-8.93l22-40.86Z" transform="translate(7 13)"/><g class="cls-3"><path d="M789.28,419.8c2.22-12.66,11.91-21.3,23.87-21.3a23.58,23.58,0,0,1,11.61,2.92l-3.32,7.35a19.15,19.15,0,0,0-9.63-2.57c-7.06,0-12.73,5.37-14.13,13.6S800,433.34,807,433.34a23.59,23.59,0,0,0,10.51-2.57l.76,7.42a30.08,30.08,0,0,1-12.61,2.91c-12,0-18.68-8.63-16.4-21.3" transform="translate(7 13)"/><path d="M823.54,419.8c2.22-12.66,11.91-21.3,23.87-21.3A23.65,23.65,0,0,1,859,401.42l-3.33,7.35a19.15,19.15,0,0,0-9.63-2.57c-7.06,0-12.72,5.37-14.12,13.6s2.27,13.54,9.33,13.54a23.56,23.56,0,0,0,10.51-2.57l.76,7.42a30.08,30.08,0,0,1-12.61,2.91c-12,0-18.67-8.63-16.4-21.3" transform="translate(7 13)"/><path d="M889.73,419.8c1.34-7.88-2-13.6-9.4-13.6s-12.78,5.72-14.12,13.6,2,13.54,9.34,13.54,12.78-5.72,14.18-13.54m-31.92,0c2.21-12.84,12-21.3,23.87-21.3s18.67,8.46,16.46,21.3-12.09,21.3-23.93,21.3-18.68-8.52-16.4-21.3" transform="translate(7 13)"/><path d="M913.84,406.9l-2.16,12.2h7.12c5.43,0,8.46-1.81,9.28-6.18.7-4.15-1.58-6-7-6Zm1.22,19.67h-4.67l-2.45,13.66H900l7.17-40.86h15.76c10.22,0,15.06,4.67,13.49,13.55-1.17,6.59-5,10.62-12.73,12.84l1.11,6.94h8.11l-1.34,7.53H916.64Z" transform="translate(7 13)"/><path d="M938.41,429.72A21.16,21.16,0,0,0,950,433.34c5,0,7.82-1.69,8.29-4.08,1.16-6.89-20.2-5.2-17.75-19,1.23-7.06,7.65-11.79,16.93-11.79a26.78,26.78,0,0,1,13,3.27l-3.38,7.35a23.17,23.17,0,0,0-10.92-2.92c-4.55,0-6.82,1.64-7.17,3.91-1.35,7.42,19.9,6.31,17.62,19.38-1.22,6.83-7.82,11.61-17.86,11.61A25.67,25.67,0,0,1,935,437.25Z" transform="translate(7 13)"/></g><polygon points="983.76 412.38 991.76 412.38 984.52 453.23 976.58 453.23 983.76 412.38"/><path class="cls-5" d="M541,518v-4.8h4.7v-25.4H541V483h14q7,0,10.73,3.55t3.72,10.7v6.55q0,7.16-3.72,10.68T555,518Zm10.15-4.9H555c3,0,5.29-.76,6.75-2.3s2.2-3.81,2.2-6.85V497c0-3.06-.73-5.35-2.2-6.85s-3.71-2.25-6.75-2.25h-3.9Z" transform="translate(7 13)"/><path class="cls-5" d="M587,518.67a13.15,13.15,0,0,1-6.55-1.57,11.14,11.14,0,0,1-4.37-4.45,13.71,13.71,0,0,1-1.58-6.68v-.6a14,14,0,0,1,1.55-6.72,11,11,0,0,1,4.33-4.45,12.78,12.78,0,0,1,6.42-1.58A12.07,12.07,0,0,1,593,494.2a11,11,0,0,1,4.17,4.37,13.68,13.68,0,0,1,1.5,6.55v1.95H579.71a7,7,0,0,0,2.18,5.18,7.32,7.32,0,0,0,5.17,1.92,6.44,6.44,0,0,0,4.38-1.3,9.24,9.24,0,0,0,2.27-3l4.25,2.2a14.68,14.68,0,0,1-2,2.95,10.55,10.55,0,0,1-3.48,2.6A12.51,12.51,0,0,1,587,518.67Zm-7.2-15.55h13.65a6.09,6.09,0,0,0-2-4.37,6.87,6.87,0,0,0-4.7-1.58,7,7,0,0,0-4.72,1.58A6.8,6.8,0,0,0,579.76,503.12Z" transform="translate(7 13)"/><path class="cls-5" d="M615,518.67a13.62,13.62,0,0,1-7.8-2.1,9.06,9.06,0,0,1-3.8-6.35l4.8-1.15a7.54,7.54,0,0,0,1.35,3.25,5.17,5.17,0,0,0,2.38,1.7,9,9,0,0,0,3.07.5,6.38,6.38,0,0,0,3.78-.95,2.89,2.89,0,0,0,1.32-2.45,2.34,2.34,0,0,0-1.25-2.2,12.55,12.55,0,0,0-3.7-1.15l-1.7-.3a22,22,0,0,1-4.55-1.3,8,8,0,0,1-3.25-2.35,6,6,0,0,1-1.2-3.85,6.36,6.36,0,0,1,2.6-5.42,11.31,11.31,0,0,1,6.9-1.93,11.65,11.65,0,0,1,6.83,1.88,8.52,8.52,0,0,1,3.47,5.07l-4.8,1.35a4.58,4.58,0,0,0-1.9-3.17,6.51,6.51,0,0,0-3.6-.93,6,6,0,0,0-3.3.78,2.44,2.44,0,0,0-1.2,2.17,2.37,2.37,0,0,0,1.18,2.2,9.26,9.26,0,0,0,3.17,1l1.75.3a27.88,27.88,0,0,1,4.85,1.25,8.11,8.11,0,0,1,3.48,2.3,6,6,0,0,1,1.27,4,6.74,6.74,0,0,1-2.75,5.75A12.08,12.08,0,0,1,615,518.67Z" transform="translate(7 13)"/><path class="cls-5" d="M638.61,518.67a11.72,11.72,0,0,1-4.72-.9,7.54,7.54,0,0,1-3.3-2.65,7.18,7.18,0,0,1-1.23-4.25,6.92,6.92,0,0,1,1.23-4.22,7.43,7.43,0,0,1,3.35-2.53,13,13,0,0,1,4.82-.85h7.5v-1.6a4.66,4.66,0,0,0-1.3-3.45,5.48,5.48,0,0,0-4-1.3,5.9,5.9,0,0,0-4.05,1.25,6,6,0,0,0-1.85,3.25l-4.8-1.55a10.3,10.3,0,0,1,1.93-3.62,9.53,9.53,0,0,1,3.52-2.63,12.85,12.85,0,0,1,5.3-1,11,11,0,0,1,7.55,2.45,8.81,8.81,0,0,1,2.75,6.95v10.15c0,1,.47,1.5,1.4,1.5h2.1V518H651a4.34,4.34,0,0,1-2.85-.9,3,3,0,0,1-1.1-2.45v-.15h-.75a11.26,11.26,0,0,1-1.2,1.75,6.39,6.39,0,0,1-2.35,1.73A9.82,9.82,0,0,1,638.61,518.67Zm.75-4.25a7,7,0,0,0,5-1.77,6.35,6.35,0,0,0,1.9-4.88v-.5h-7.2a5.58,5.58,0,0,0-3.3.88,2.94,2.94,0,0,0-1.25,2.57,3.22,3.22,0,0,0,1.3,2.7A5.67,5.67,0,0,0,639.36,514.42Z" transform="translate(7 13)"/><path class="cls-5" d="M659.81,518V493.32h5.05v2.9h.8a4.19,4.19,0,0,1,1.93-2.27,6.65,6.65,0,0,1,3.27-.73h2.95v4.65h-3.15a6.05,6.05,0,0,0-4.1,1.38,5.24,5.24,0,0,0-1.6,4.22V518Z" transform="translate(7 13)"/><path class="cls-5" d="M679.16,518V493.32h5.05v2.9h.8a4.19,4.19,0,0,1,1.93-2.27,6.65,6.65,0,0,1,3.27-.73h2.95v4.65H690a6.05,6.05,0,0,0-4.1,1.38,5.24,5.24,0,0,0-1.6,4.22V518Z" transform="translate(7 13)"/><path class="cls-5" d="M709.16,518.67a13.84,13.84,0,0,1-6.57-1.52,11.23,11.23,0,0,1-4.53-4.38,13.24,13.24,0,0,1-1.65-6.75v-.75a13.08,13.08,0,0,1,1.65-6.72,11.43,11.43,0,0,1,4.53-4.38,13.63,13.63,0,0,1,6.57-1.55,13.8,13.8,0,0,1,6.6,1.55,11.41,11.41,0,0,1,4.55,4.38,13.08,13.08,0,0,1,1.65,6.72V506a13.24,13.24,0,0,1-1.65,6.75,11.22,11.22,0,0,1-4.55,4.38A14,14,0,0,1,709.16,518.67Zm0-4.6a7.39,7.39,0,0,0,5.53-2.17,8.29,8.29,0,0,0,2.12-6v-.45a8.31,8.31,0,0,0-2.1-6,8.05,8.05,0,0,0-11,0,8.24,8.24,0,0,0-2.13,6v.45a8.25,8.25,0,0,0,2.13,6A7.3,7.3,0,0,0,709.16,514.07Z" transform="translate(7 13)"/><path class="cls-5" d="M728.36,518V483h5.15v35Z" transform="translate(7 13)"/><path class="cls-5" d="M741.16,518V483h5.15v35Z" transform="translate(7 13)"/><path class="cls-5" d="M761.61,518.67a11.72,11.72,0,0,1-4.72-.9,7.54,7.54,0,0,1-3.3-2.65,7.18,7.18,0,0,1-1.23-4.25,6.92,6.92,0,0,1,1.23-4.22,7.43,7.43,0,0,1,3.35-2.53,13,13,0,0,1,4.82-.85h7.5v-1.6a4.66,4.66,0,0,0-1.3-3.45,5.48,5.48,0,0,0-4-1.3,5.9,5.9,0,0,0-4.05,1.25,6,6,0,0,0-1.85,3.25l-4.8-1.55a10.3,10.3,0,0,1,1.93-3.62,9.45,9.45,0,0,1,3.52-2.63,12.85,12.85,0,0,1,5.3-1,11,11,0,0,1,7.55,2.45,8.84,8.84,0,0,1,2.75,6.95v10.15c0,1,.47,1.5,1.4,1.5h2.1V518H774a4.34,4.34,0,0,1-2.85-.9,3,3,0,0,1-1.1-2.45v-.15h-.75a12,12,0,0,1-1.2,1.75,6.48,6.48,0,0,1-2.35,1.73A9.82,9.82,0,0,1,761.61,518.67Zm.75-4.25a7,7,0,0,0,5-1.77,6.35,6.35,0,0,0,1.9-4.88v-.5h-7.2a5.58,5.58,0,0,0-3.3.88,2.94,2.94,0,0,0-1.25,2.57,3.22,3.22,0,0,0,1.3,2.7A5.67,5.67,0,0,0,762.36,514.42Z" transform="translate(7 13)"/><path class="cls-5" d="M792.56,518.67a11.07,11.07,0,0,1-9.83-5.82,14,14,0,0,1-1.57-6.83v-.75a14.08,14.08,0,0,1,1.55-6.8,10.89,10.89,0,0,1,4.15-4.35,11.19,11.19,0,0,1,5.7-1.5,11.67,11.67,0,0,1,4,.6,8.3,8.3,0,0,1,2.68,1.53,7.17,7.17,0,0,1,1.6,1.92h.8V483h5.15v35h-5v-3.5H801a9.22,9.22,0,0,1-2.88,2.9A9.79,9.79,0,0,1,792.56,518.67Zm1.45-4.5a7.54,7.54,0,0,0,5.53-2.15,8.29,8.29,0,0,0,2.17-6.15v-.45a8.26,8.26,0,0,0-2.15-6.1,8.14,8.14,0,0,0-11,0,8.16,8.16,0,0,0-2.18,6.1v.45a8.22,8.22,0,0,0,2.18,6.15A7.42,7.42,0,0,0,794,514.17Z" transform="translate(7 13)"/><path class="cls-5" d="M826,518.67a13.91,13.91,0,0,1-6.58-1.52,11.27,11.27,0,0,1-4.52-4.38,13.24,13.24,0,0,1-1.65-6.75v-.75a13.08,13.08,0,0,1,1.65-6.72,11.47,11.47,0,0,1,4.52-4.38,14.78,14.78,0,0,1,13.18,0,11.41,11.41,0,0,1,4.55,4.38,13.08,13.08,0,0,1,1.65,6.72V506a13.24,13.24,0,0,1-1.65,6.75,11.22,11.22,0,0,1-4.55,4.38A14,14,0,0,1,826,518.67Zm0-4.6a7.35,7.35,0,0,0,5.52-2.17,8.25,8.25,0,0,0,2.13-6v-.45a8.31,8.31,0,0,0-2.1-6,8.07,8.07,0,0,0-11,0,8.28,8.28,0,0,0-2.12,6v.45a8.29,8.29,0,0,0,2.12,6A7.34,7.34,0,0,0,826,514.07Z" transform="translate(7 13)"/><path class="cls-5" d="M845.16,518V493.32h5.05v2.9h.8a4.22,4.22,0,0,1,1.92-2.27,6.71,6.71,0,0,1,3.28-.73h2.95v4.65H856a6.05,6.05,0,0,0-4.1,1.38,5.24,5.24,0,0,0-1.6,4.22V518Z" transform="translate(7 13)"/><path class="cls-5" d="M880,518l-5.15-35h5.4l4.2,31.35h.8l5.4-31.35h9.45l5.4,31.35h.8L910.41,483h5.4l-5.15,35h-9.45l-5.5-31.8h-.8L889.46,518Z" transform="translate(7 13)"/><path class="cls-5" d="M932.36,518.67a13.12,13.12,0,0,1-6.55-1.57,11.16,11.16,0,0,1-4.38-4.45,13.71,13.71,0,0,1-1.57-6.68v-.6a13.87,13.87,0,0,1,1.55-6.72,11,11,0,0,1,4.32-4.45,12.79,12.79,0,0,1,6.43-1.58,12,12,0,0,1,6.22,1.58,11,11,0,0,1,4.18,4.37,13.68,13.68,0,0,1,1.5,6.55v1.95H925.11a7,7,0,0,0,2.17,5.18,7.35,7.35,0,0,0,5.18,1.92,6.41,6.41,0,0,0,4.37-1.3,9.27,9.27,0,0,0,2.28-3l4.25,2.2a14.76,14.76,0,0,1-2,2.95,10.51,10.51,0,0,1-3.47,2.6A12.57,12.57,0,0,1,932.36,518.67Zm-7.2-15.55h13.65a6.13,6.13,0,0,0-2-4.37,6.89,6.89,0,0,0-4.7-1.58,7,7,0,0,0-4.73,1.58A6.79,6.79,0,0,0,925.16,503.12Z" transform="translate(7 13)"/><path class="cls-5" d="M964.51,518.67a9.85,9.85,0,0,1-5.53-1.3,9.29,9.29,0,0,1-2.87-2.9h-.8V518h-5V483h5.15v13.7h.8a8.5,8.5,0,0,1,1.6-1.92,7.65,7.65,0,0,1,2.65-1.53,11.93,11.93,0,0,1,4-.6,11.24,11.24,0,0,1,5.7,1.5,11,11,0,0,1,4.15,4.35,14.08,14.08,0,0,1,1.55,6.8V506a13.85,13.85,0,0,1-1.58,6.83,11,11,0,0,1-9.82,5.82Zm-1.5-4.5a7.5,7.5,0,0,0,5.52-2.15,8.26,8.26,0,0,0,2.18-6.15v-.45a8.26,8.26,0,0,0-2.15-6.1,8.15,8.15,0,0,0-11,0,8.19,8.19,0,0,0-2.17,6.1v.45a8.25,8.25,0,0,0,2.17,6.15A7.45,7.45,0,0,0,963,514.17Z" transform="translate(7 13)"/><path class="cls-5" d="M494.91,574.92q-6.39,0-10.15-3.62T481,560.82v-8.2c0-4.56,1.25-8.06,3.75-10.47s5.89-3.63,10.15-3.63,7.44,1.17,9.73,3.5,3.42,5.52,3.42,9.55v.3h-5.35v-.45a8.63,8.63,0,0,0-1.92-5.8c-1.29-1.5-3.24-2.25-5.88-2.25a8.11,8.11,0,0,0-6.25,2.43,9.49,9.49,0,0,0-2.25,6.72v8.4a9.53,9.53,0,0,0,2.25,6.7,8.08,8.08,0,0,0,6.25,2.45c2.64,0,4.59-.76,5.88-2.27a8.65,8.65,0,0,0,1.92-5.78v-.85h5.35v.7q0,6.06-3.42,9.55T494.91,574.92Z" transform="translate(7 13)"/><path class="cls-5" d="M525.76,574.92a13.87,13.87,0,0,1-6.57-1.52,11.23,11.23,0,0,1-4.53-4.38,13.24,13.24,0,0,1-1.65-6.75v-.75a13.08,13.08,0,0,1,1.65-6.72,11.43,11.43,0,0,1,4.53-4.38,13.65,13.65,0,0,1,6.57-1.55,13.8,13.8,0,0,1,6.6,1.55,11.35,11.35,0,0,1,4.55,4.38,13.08,13.08,0,0,1,1.65,6.72v.75a13.24,13.24,0,0,1-1.65,6.75,11.16,11.16,0,0,1-4.55,4.38A14,14,0,0,1,525.76,574.92Zm0-4.6a7.39,7.39,0,0,0,5.53-2.17,8.29,8.29,0,0,0,2.12-6v-.45a8.31,8.31,0,0,0-2.1-6,8.05,8.05,0,0,0-11,0,8.24,8.24,0,0,0-2.13,6v.45a8.25,8.25,0,0,0,2.13,6A7.3,7.3,0,0,0,525.76,570.32Z" transform="translate(7 13)"/><path class="cls-5" d="M545,574.22V549.57h5v2.9h.8a6.55,6.55,0,0,1,2.25-2.3,7.66,7.66,0,0,1,4.2-1,7.84,7.84,0,0,1,4.43,1.13,7.17,7.17,0,0,1,2.52,2.87h.8a7.69,7.69,0,0,1,2.48-2.85,8,8,0,0,1,4.62-1.15,9,9,0,0,1,4.25,1,7.22,7.22,0,0,1,2.95,2.9,9.51,9.51,0,0,1,1.1,4.77v16.4h-5.15v-16a4.27,4.27,0,0,0-4.7-4.7,5,5,0,0,0-3.85,1.55,6.32,6.32,0,0,0-1.45,4.45v14.7h-5.15v-16a4.27,4.27,0,0,0-4.7-4.7,5,5,0,0,0-3.85,1.55,6.28,6.28,0,0,0-1.45,4.45v14.7Z" transform="translate(7 13)"/><path class="cls-5" d="M587.81,574.22V549.57h5.05v2.9h.8a6.55,6.55,0,0,1,2.25-2.3,7.63,7.63,0,0,1,4.2-1,7.84,7.84,0,0,1,4.43,1.13,7.25,7.25,0,0,1,2.52,2.87h.8a7.69,7.69,0,0,1,2.48-2.85,8,8,0,0,1,4.62-1.15,9,9,0,0,1,4.25,1,7.22,7.22,0,0,1,2.95,2.9,9.51,9.51,0,0,1,1.1,4.77v16.4h-5.15v-16a4.27,4.27,0,0,0-4.7-4.7,5,5,0,0,0-3.85,1.55,6.28,6.28,0,0,0-1.45,4.45v14.7H603v-16a4.27,4.27,0,0,0-4.7-4.7,5,5,0,0,0-3.85,1.55,6.28,6.28,0,0,0-1.45,4.45v14.7Z" transform="translate(7 13)"/><path class="cls-5" d="M639.76,574.67a10,10,0,0,1-5-1.25,8.74,8.74,0,0,1-3.45-3.55,11.4,11.4,0,0,1-1.25-5.5v-14.8h5.15V564a5.49,5.49,0,0,0,6,6.25,6.56,6.56,0,0,0,5.08-2.12,8.85,8.85,0,0,0,1.92-6.13V549.57h5.15v24.65h-5v-3.7h-.8a7.74,7.74,0,0,1-2.5,2.83A8.91,8.91,0,0,1,639.76,574.67Z" transform="translate(7 13)"/><path class="cls-5" d="M661,574.22V549.57h5v3.7h.8a7.52,7.52,0,0,1,2.5-2.8,9.16,9.16,0,0,1,5.35-1.3,9.85,9.85,0,0,1,5,1.25,8.87,8.87,0,0,1,3.42,3.53,11.22,11.22,0,0,1,1.25,5.47v14.8h-5.15v-14.4a6.22,6.22,0,0,0-1.6-4.72,6.1,6.1,0,0,0-4.4-1.53,6.61,6.61,0,0,0-5.12,2.1,8.71,8.71,0,0,0-1.93,6.1v12.45Z" transform="translate(7 13)"/><path class="cls-5" d="M694.36,546.22a3.5,3.5,0,0,1-2.52-1,3.61,3.61,0,0,1,0-5,3.77,3.77,0,0,1,5.07,0,3.69,3.69,0,0,1,0,5A3.51,3.51,0,0,1,694.36,546.22Zm-2.6,28V549.57h5.15v24.65Z" transform="translate(7 13)"/><path class="cls-5" d="M713.81,574.22a4.76,4.76,0,0,1-3.57-1.35,4.89,4.89,0,0,1-1.33-3.6V553.92h-6.8v-4.35h6.8v-8.15h5.15v8.15h7.35v4.35h-7.35v14.45c0,1,.47,1.5,1.4,1.5h5.15v4.35Z" transform="translate(7 13)"/><path class="cls-5" d="M730.31,584.22v-4.5h13.75c.93,0,1.4-.5,1.4-1.5v-7.6h-.8a6.67,6.67,0,0,1-1.37,1.93,7.22,7.22,0,0,1-2.48,1.52,10.87,10.87,0,0,1-3.9.6,10,10,0,0,1-5-1.25,8.74,8.74,0,0,1-3.45-3.55,11.28,11.28,0,0,1-1.25-5.45V549.57h5.15V564a5.49,5.49,0,0,0,6,6.25,6.58,6.58,0,0,0,5.08-2.1,8.73,8.73,0,0,0,1.92-6.1v-12.5h5.15v29.7a4.93,4.93,0,0,1-1.32,3.6,4.87,4.87,0,0,1-3.63,1.35Z" transform="translate(7 13)"/><path class="cls-5" d="M770.76,574.22v-35h10.15l7.65,31.4h.8l7.65-31.4h10.15v35h-5.25V543h-.8l-7.6,31.2h-9.1l-7.6-31.2H776v31.2Z" transform="translate(7 13)"/><path class="cls-5" d="M822.26,574.92a11.81,11.81,0,0,1-4.73-.9,7.66,7.66,0,0,1-3.3-2.65,7.25,7.25,0,0,1-1.22-4.25,7,7,0,0,1,1.22-4.22,7.54,7.54,0,0,1,3.35-2.53,13.08,13.08,0,0,1,4.83-.85h7.5v-1.6a4.66,4.66,0,0,0-1.3-3.45,5.48,5.48,0,0,0-4-1.3,5.9,5.9,0,0,0-4.05,1.25,6,6,0,0,0-1.85,3.25l-4.8-1.55a10.44,10.44,0,0,1,1.92-3.62,9.57,9.57,0,0,1,3.53-2.63,12.85,12.85,0,0,1,5.3-1,11,11,0,0,1,7.55,2.45,8.84,8.84,0,0,1,2.75,6.95v10.15c0,1,.47,1.5,1.4,1.5h2.1v4.3h-3.85a4.34,4.34,0,0,1-2.85-.9,3,3,0,0,1-1.1-2.45v-.15h-.75a12,12,0,0,1-1.2,1.75,6.48,6.48,0,0,1-2.35,1.73A9.82,9.82,0,0,1,822.26,574.92Zm.75-4.25a7,7,0,0,0,5-1.77,6.35,6.35,0,0,0,1.9-4.88v-.5h-7.2a5.58,5.58,0,0,0-3.3.88,2.94,2.94,0,0,0-1.25,2.57,3.22,3.22,0,0,0,1.3,2.7A5.67,5.67,0,0,0,823,570.67Z" transform="translate(7 13)"/><path class="cls-5" d="M843.46,574.22V549.57h5v3.7h.8a7.52,7.52,0,0,1,2.5-2.8,9.16,9.16,0,0,1,5.35-1.3,9.81,9.81,0,0,1,5,1.25,8.9,8.9,0,0,1,3.43,3.53,11.22,11.22,0,0,1,1.25,5.47v14.8h-5.15v-14.4a6.22,6.22,0,0,0-1.6-4.72,6.1,6.1,0,0,0-4.4-1.53,6.64,6.64,0,0,0-5.13,2.1,8.75,8.75,0,0,0-1.92,6.1v12.45Z" transform="translate(7 13)"/><path class="cls-5" d="M881.86,574.92a11.81,11.81,0,0,1-4.73-.9,7.66,7.66,0,0,1-3.3-2.65,7.25,7.25,0,0,1-1.22-4.25,7,7,0,0,1,1.22-4.22,7.54,7.54,0,0,1,3.35-2.53,13.08,13.08,0,0,1,4.83-.85h7.5v-1.6a4.66,4.66,0,0,0-1.3-3.45,5.48,5.48,0,0,0-4-1.3,5.9,5.9,0,0,0-4.05,1.25,6,6,0,0,0-1.85,3.25l-4.8-1.55a10.44,10.44,0,0,1,1.92-3.62,9.57,9.57,0,0,1,3.53-2.63,12.85,12.85,0,0,1,5.3-1,11,11,0,0,1,7.55,2.45,8.84,8.84,0,0,1,2.75,6.95v10.15c0,1,.46,1.5,1.4,1.5h2.1v4.3h-3.85a4.34,4.34,0,0,1-2.85-.9,3,3,0,0,1-1.1-2.45v-.15h-.75a12,12,0,0,1-1.2,1.75A6.57,6.57,0,0,1,886,574.2,9.82,9.82,0,0,1,881.86,574.92Zm.75-4.25a7,7,0,0,0,5-1.77,6.35,6.35,0,0,0,1.9-4.88v-.5h-7.2a5.58,5.58,0,0,0-3.3.88,2.94,2.94,0,0,0-1.25,2.57,3.22,3.22,0,0,0,1.3,2.7A5.67,5.67,0,0,0,882.61,570.67Z" transform="translate(7 13)"/><path class="cls-5" d="M901.41,562v-.75a13.19,13.19,0,0,1,1.57-6.65,11.18,11.18,0,0,1,9.88-5.75,9.53,9.53,0,0,1,5.52,1.35,9.42,9.42,0,0,1,2.83,2.9h.8v-3.55h5v29.7a4.89,4.89,0,0,1-1.33,3.6,4.84,4.84,0,0,1-3.62,1.35h-16.6v-4.5h15a1.31,1.31,0,0,0,1.45-1.5v-7.85h-.8a9.21,9.21,0,0,1-1.55,1.85,7.45,7.45,0,0,1-2.63,1.55,11.85,11.85,0,0,1-4.07.6,11.53,11.53,0,0,1-5.73-1.47,10.79,10.79,0,0,1-4.17-4.25A13.32,13.32,0,0,1,901.41,562Zm12.85,7.85a7.6,7.6,0,0,0,5.52-2.12,7.86,7.86,0,0,0,2.18-5.88v-.45a7.86,7.86,0,0,0-2.15-5.92,8.35,8.35,0,0,0-11,0,7.79,7.79,0,0,0-2.17,5.92v.45a7.85,7.85,0,0,0,2.17,5.88A7.55,7.55,0,0,0,914.26,569.87Z" transform="translate(7 13)"/><path class="cls-5" d="M945.91,574.92a13.15,13.15,0,0,1-6.55-1.57A11.16,11.16,0,0,1,935,568.9a13.71,13.71,0,0,1-1.57-6.68v-.6A13.87,13.87,0,0,1,935,554.9a11,11,0,0,1,4.32-4.45,12.79,12.79,0,0,1,6.43-1.58,12,12,0,0,1,6.22,1.58,11,11,0,0,1,4.18,4.37,13.68,13.68,0,0,1,1.5,6.55v2h-19a7.07,7.07,0,0,0,2.17,5.18,7.35,7.35,0,0,0,5.18,1.92,6.41,6.41,0,0,0,4.37-1.3,9.27,9.27,0,0,0,2.28-3l4.25,2.2a14.76,14.76,0,0,1-2,2.95,10.51,10.51,0,0,1-3.47,2.6A12.54,12.54,0,0,1,945.91,574.92Zm-7.2-15.55h13.65a6.09,6.09,0,0,0-2-4.37,6.89,6.89,0,0,0-4.7-1.58,7,7,0,0,0-4.73,1.58A6.83,6.83,0,0,0,938.71,559.37Z" transform="translate(7 13)"/><path class="cls-5" d="M963.81,574.22V549.57h5.05v2.9h.8a4.22,4.22,0,0,1,1.92-2.27,6.71,6.71,0,0,1,3.28-.73h2.95v4.65h-3.15a6,6,0,0,0-4.1,1.38,5.24,5.24,0,0,0-1.6,4.22v14.5Z" transform="translate(7 13)"/><g class="cls-3"><path d="M1712.14,241.37a52.58,52.58,0,0,1-46.43-46.47l-6.27-59.13L1653.09,195a52.55,52.55,0,0,1-46.54,46.44l-59.29,6.21,59.36,6.17a52.53,52.53,0,0,1,46.6,46.56l6.22,59.36,6.15-59.22A52.53,52.53,0,0,1,1712.07,254l59.19-6.28Z" transform="translate(7 13)"/></g><path class="cls-5" d="M514.35,771l-18.9-8.1v-3.6l18.9-8.1v3.15l-16,6.53v.45l16,6.52Z" transform="translate(7 13)"/><path class="cls-5" d="M522.81,776.8V745.3h2.7v13.46h.54a7.74,7.74,0,0,1,1.51-2,7.15,7.15,0,0,1,2.52-1.58,10.89,10.89,0,0,1,3.89-.6,9.64,9.64,0,0,1,4.37,1,7.67,7.67,0,0,1,3.17,3,9.58,9.58,0,0,1,1.19,5V776.8H540V763.66q0-3.6-1.8-5.15a7.08,7.08,0,0,0-4.81-1.55,7.72,7.72,0,0,0-5.63,2.2q-2.25,2.21-2.25,6.71V776.8Z" transform="translate(7 13)"/><path class="cls-5" d="M557.91,776.8V747h-.58l-6.89,11.7h-3.15l8-13.41h5.44v31.5Z" transform="translate(7 13)"/><path class="cls-5" d="M569.07,771V767.8l16.07-6.52v-.45l-16.07-6.53v-3.15l18.9,8.1v3.6Z" transform="translate(7 13)"/><path class="cls-5" d="M596.34,776.8V745.3h2.88v14.4h16V745.3h2.88v31.5h-2.88V762.31h-16V776.8Z" transform="translate(7 13)"/><path class="cls-5" d="M635.94,777.43a11.58,11.58,0,0,1-5.83-1.42,9.84,9.84,0,0,1-3.87-4,12.28,12.28,0,0,1-1.37-5.91v-.54a12.32,12.32,0,0,1,1.37-5.92,9.84,9.84,0,0,1,3.87-4,12.68,12.68,0,0,1,11.66,0,9.84,9.84,0,0,1,3.87,4A12.32,12.32,0,0,1,647,765.6v.54a12.28,12.28,0,0,1-1.37,5.91,9.84,9.84,0,0,1-3.87,4A11.58,11.58,0,0,1,635.94,777.43Zm0-2.43a7.91,7.91,0,0,0,6.12-2.45,9.24,9.24,0,0,0,2.25-6.5v-.36a9.27,9.27,0,0,0-2.25-6.51,8.84,8.84,0,0,0-12.22,0,9.24,9.24,0,0,0-2.27,6.51v.36a9.21,9.21,0,0,0,2.27,6.5A7.94,7.94,0,0,0,635.94,775Z" transform="translate(7 13)"/><path class="cls-5" d="M653.85,776.8V745.3h2.7v31.5Z" transform="translate(7 13)"/><path class="cls-5" d="M671.18,777.43a10.58,10.58,0,0,1-4.17-.79,6.65,6.65,0,0,1-2.94-2.31,6.23,6.23,0,0,1-1.08-3.69,5.92,5.92,0,0,1,1.08-3.65,6.51,6.51,0,0,1,2.92-2.16,11.2,11.2,0,0,1,4.1-.72h8v-1.75a5.5,5.5,0,0,0-1.53-4.14,6.16,6.16,0,0,0-4.46-1.49,6.87,6.87,0,0,0-4.57,1.42,7,7,0,0,0-2.27,3.8l-2.61-.76a10.33,10.33,0,0,1,1.71-3.49,8.28,8.28,0,0,1,3.11-2.48,10.74,10.74,0,0,1,4.63-.92,8.93,8.93,0,0,1,6.41,2.16,7.91,7.91,0,0,1,2.28,6v10.62q0,1.35,1.26,1.35h2.11v2.34h-2.88a2.94,2.94,0,0,1-2.2-.83,3.12,3.12,0,0,1-.81-2.27v-.32h-.45a10.51,10.51,0,0,1-1.51,1.94,6.83,6.83,0,0,1-2.41,1.53A10.25,10.25,0,0,1,671.18,777.43Zm.18-2.43a7.69,7.69,0,0,0,5.6-2.09A7.94,7.94,0,0,0,679.1,767v-.54h-8a7,7,0,0,0-3.89,1,3.47,3.47,0,0,0-1.55,3.13,3.77,3.77,0,0,0,1.59,3.26A6.81,6.81,0,0,0,671.36,775Z" transform="translate(7 13)"/><path class="cls-5" d="M701.82,776.8V745.3h5.63L717,775.09h.54l9.54-29.79h5.62v31.5H729.9V747h-.54l-9.54,29.79h-5.13L705.15,747h-.54V776.8Z" transform="translate(7 13)"/><path class="cls-5" d="M748.93,777.25a9.67,9.67,0,0,1-4.34-1,7.59,7.59,0,0,1-3.19-3,9.64,9.64,0,0,1-1.2-5V754.93h2.7v13.14q0,3.55,1.8,5.15a7,7,0,0,0,4.82,1.6,7.64,7.64,0,0,0,5.62-2.23q2.25-2.22,2.25-6.72V754.93h2.7V776.8h-2.61v-4h-.54a8.26,8.26,0,0,1-2.65,3.13A8.93,8.93,0,0,1,748.93,777.25Z" transform="translate(7 13)"/><path class="cls-5" d="M768,776.8V754.93h2.61V759h.54a8.29,8.29,0,0,1,2.66-3.13,8.89,8.89,0,0,1,5.35-1.37,9.64,9.64,0,0,1,4.37,1,7.6,7.6,0,0,1,3.17,3,9.64,9.64,0,0,1,1.19,5V776.8h-2.7V763.66q0-3.6-1.8-5.17a7,7,0,0,0-4.81-1.58,7.67,7.67,0,0,0-5.63,2.23c-1.5,1.48-2.25,3.73-2.25,6.73V776.8Z" transform="translate(7 13)"/><path class="cls-5" d="M805,777.43a10.5,10.5,0,0,1-5.31-1.37,10.1,10.1,0,0,1-3.8-3.92,12.16,12.16,0,0,1-1.42-6v-.54a12.3,12.3,0,0,1,1.4-6,9.89,9.89,0,0,1,3.8-3.92A10.63,10.63,0,0,1,805,754.3a11.41,11.41,0,0,1,4.1.65,8.16,8.16,0,0,1,2.72,1.67,8.05,8.05,0,0,1,1.64,2.14H814V745.3h2.7v31.5h-2.61v-4h-.54a9.24,9.24,0,0,1-2.94,3.21A9.58,9.58,0,0,1,805,777.43Zm.63-2.43a8.08,8.08,0,0,0,6.06-2.38,9,9,0,0,0,2.31-6.57v-.36a9,9,0,0,0-2.31-6.57,8.84,8.84,0,0,0-12.09,0,9,9,0,0,0-2.34,6.57v.36a9,9,0,0,0,2.34,6.57A8.08,8.08,0,0,0,805.63,775Z" transform="translate(7 13)"/><path class="cls-5" d="M834.61,777.43a11.51,11.51,0,0,1-5.82-1.42,9.71,9.71,0,0,1-3.87-4,12.17,12.17,0,0,1-1.38-5.91v-.54a12.21,12.21,0,0,1,1.38-5.92,9.71,9.71,0,0,1,3.87-4,12.66,12.66,0,0,1,11.65,0,9.71,9.71,0,0,1,3.87,4,12.21,12.21,0,0,1,1.37,5.92v.54a12.17,12.17,0,0,1-1.37,5.91,9.71,9.71,0,0,1-3.87,4A11.55,11.55,0,0,1,834.61,777.43Zm0-2.43a7.91,7.91,0,0,0,6.12-2.45,9.24,9.24,0,0,0,2.25-6.5v-.36a9.27,9.27,0,0,0-2.25-6.51,8.83,8.83,0,0,0-12.21,0,9.2,9.2,0,0,0-2.28,6.51v.36a9.17,9.17,0,0,0,2.28,6.5A7.9,7.9,0,0,0,834.61,775Z" transform="translate(7 13)"/><path class="cls-5" d="M853.83,777.43a2.46,2.46,0,1,1,1.84-.72A2.51,2.51,0,0,1,853.83,777.43Zm-1.4-8.28V745.3h2.79v23.85Z" transform="translate(7 13)"/><path class="cls-5" d="M882.49,771l-18.9-8.1v-3.6l18.9-8.1v3.15l-16,6.53v.45l16,6.52Z" transform="translate(7 13)"/><path class="cls-5" d="M887.26,785.8l13.23-40.5h2.75L890,785.8Z" transform="translate(7 13)"/><path class="cls-5" d="M907.29,776.8V745.3H910v13.46h.54a7.74,7.74,0,0,1,1.51-2,7.15,7.15,0,0,1,2.52-1.58,10.85,10.85,0,0,1,3.89-.6,9.6,9.6,0,0,1,4.36,1,7.69,7.69,0,0,1,3.18,3,9.58,9.58,0,0,1,1.19,5V776.8h-2.7V763.66q0-3.6-1.8-5.15a7.11,7.11,0,0,0-4.82-1.55,7.7,7.7,0,0,0-5.62,2.2q-2.25,2.21-2.25,6.71V776.8Z" transform="translate(7 13)"/><path class="cls-5" d="M942.39,776.8V747h-.59l-6.88,11.7h-3.15l8-13.41h5.45v31.5Z" transform="translate(7 13)"/><path class="cls-5" d="M953.55,771V767.8l16.06-6.52v-.45l-16.06-6.53v-3.15l18.9,8.1v3.6Z" transform="translate(7 13)"/><g class="cls-3"><path class="cls-5" d="M769.55,874.78c-.18,1.29-.33,2.59-.54,3.88a33.11,33.11,0,0,1-4.4,11.81c-.82,1.37-1.81,2.64-2.75,3.94a.7.7,0,0,1-.63.21,45.52,45.52,0,0,0-9.08-3.54,65.21,65.21,0,0,0,2.5-17.21h14.09c.27,0,.54,0,.81,0Z" transform="translate(7 13)"/><path class="cls-5" d="M769.55,871.38h-14.9a64.88,64.88,0,0,0-2.45-17l9.49-3.78c.48.64,1.11,1.4,1.67,2.21a35,35,0,0,1,6,15.95c.07.6.13,1.2.2,1.8Z" transform="translate(7 13)"/><path class="cls-5" d="M733.44,907.36a12.43,12.43,0,0,1-5.07-2.43,20.58,20.58,0,0,1-5.24-6.59c-.91-1.75-1.68-3.58-2.56-5.48a62.83,62.83,0,0,1,13-1.54v16Z" transform="translate(7 13)"/><path class="cls-5" d="M736,907.36v-16a62.68,62.68,0,0,1,12.92,1.5c-.37.92-.69,1.81-1.07,2.66a25.71,25.71,0,0,1-5.82,8.73,11.21,11.21,0,0,1-5.72,3c-.07,0-.12.07-.17.1Z" transform="translate(7 13)"/><path class="cls-5" d="M700,873.9h15a65.32,65.32,0,0,0,2.51,17.15c-.9.28-1.78.48-2.61.82-2.1.86-4.19,1.77-6.28,2.68-.33.15-.54.27-.85-.12a34.73,34.73,0,0,1-7-15.22c-.33-1.73-.47-3.48-.71-5.31" transform="translate(7 13)"/><path class="cls-5" d="M707.91,850.61l9.48,3.78a64.82,64.82,0,0,0-2.44,17H700.06a34.68,34.68,0,0,1,7.85-20.74" transform="translate(7 13)"/><path class="cls-5" d="M719.88,890.46a62.18,62.18,0,0,1-2.45-16.55h16.09v14.92a67.14,67.14,0,0,0-13.64,1.63" transform="translate(7 13)"/><path class="cls-5" d="M749.74,890.38c-2.35-.38-4.6-.81-6.86-1.08s-4.53-.37-6.82-.55V873.92h16.11a62.07,62.07,0,0,1-2.43,16.46" transform="translate(7 13)"/><path class="cls-5" d="M719.88,854.8a67,67,0,0,0,13.64,1.65v14.9H717.43a62.24,62.24,0,0,1,2.45-16.55" transform="translate(7 13)"/><path class="cls-5" d="M752.18,871.35H736.07v-14.9a66.55,66.55,0,0,0,13.63-1.65,62.42,62.42,0,0,1,2.48,16.55" transform="translate(7 13)"/><path class="cls-5" d="M720.65,852.43c2-5,4.21-9.73,8.79-12.86a9.28,9.28,0,0,1,4.09-1.59v16a62.19,62.19,0,0,1-12.88-1.51" transform="translate(7 13)"/><path class="cls-5" d="M736.08,838a10.27,10.27,0,0,1,4.87,2.14,20.37,20.37,0,0,1,5.6,7c.89,1.72,1.64,3.51,2.47,5.32a61.45,61.45,0,0,1-12.94,1.53Z" transform="translate(7 13)"/><path class="cls-5" d="M709.77,896.5l8.4-3.22A32.13,32.13,0,0,0,726,906.22a34.2,34.2,0,0,1-16.21-9.44,2.72,2.72,0,0,0,0-.28" transform="translate(7 13)"/><path class="cls-5" d="M743.57,839a34.86,34.86,0,0,1,16.3,9.56,40,40,0,0,1-8.44,3.27c-3.81-9-4.32-8.56-7.86-12.83" transform="translate(7 13)"/><path class="cls-5" d="M709.71,848.55a34.14,34.14,0,0,1,16.2-9.46,32.21,32.21,0,0,0-7.69,12.73,41,41,0,0,1-8.51-3.27" transform="translate(7 13)"/><path class="cls-5" d="M743.63,906.22a32,32,0,0,0,7.74-12.77,40.32,40.32,0,0,1,8.51,3.27,34.42,34.42,0,0,1-16.25,9.5" transform="translate(7 13)"/></g><rect class="cls-6" x="1261" y="553" width="67" height="67"/><line class="cls-7" x1="1261.5" y1="553.5" x2="1327" y2="619"/><line class="cls-7" x1="1326.5" y1="554.5" x2="1261.5" y2="619.5"/><path class="cls-5" d="M1234.1,668.23q-6.15,0-9.8-3.63T1220.65,654v-7.9q0-7,3.65-10.63t9.8-3.62q6.15,0,9.8,3.62t3.65,10.63V654q0,7-3.65,10.62T1234.1,668.23Zm0-2.9c3.27,0,5.79-1,7.58-3s2.67-4.73,2.67-8.3V646c0-3.57-.89-6.33-2.67-8.3s-4.31-2.95-7.58-2.95a9.71,9.71,0,0,0-7.55,2.95c-1.8,2-2.7,4.73-2.7,8.3v8.1c0,3.57.9,6.33,2.7,8.3A9.71,9.71,0,0,0,1234.1,665.33Z" transform="translate(7 13)"/><path class="cls-5" d="M1266.25,668.23a12.84,12.84,0,0,1-6.47-1.58,10.78,10.78,0,0,1-4.3-4.4,13.57,13.57,0,0,1-1.53-6.57v-.6a13.63,13.63,0,0,1,1.53-6.58,10.84,10.84,0,0,1,4.3-4.4,14.14,14.14,0,0,1,13,0,11,11,0,0,1,4.3,4.4,13.75,13.75,0,0,1,1.52,6.58v.6a13.68,13.68,0,0,1-1.52,6.57,10.91,10.91,0,0,1-4.3,4.4A12.91,12.91,0,0,1,1266.25,668.23Zm0-2.7a8.76,8.76,0,0,0,6.8-2.73,10.23,10.23,0,0,0,2.5-7.22v-.4a10.27,10.27,0,0,0-2.5-7.23,9.82,9.82,0,0,0-13.57,0,10.2,10.2,0,0,0-2.53,7.23v.4a10.16,10.16,0,0,0,2.53,7.22A8.77,8.77,0,0,0,1266.25,665.53Z" transform="translate(7 13)"/><path class="cls-5" d="M1286.15,677.53v-34.3h2.9v4.45h.6a10.37,10.37,0,0,1,3.27-3.58,10.67,10.67,0,0,1,6.23-1.57,11.68,11.68,0,0,1,5.9,1.52,11.2,11.2,0,0,1,4.22,4.33,13.36,13.36,0,0,1,1.58,6.7v.6a13.67,13.67,0,0,1-1.55,6.67,10.87,10.87,0,0,1-4.2,4.35,11.69,11.69,0,0,1-5.95,1.53,12.47,12.47,0,0,1-4.53-.73,8.77,8.77,0,0,1-3-1.87,9.81,9.81,0,0,1-1.83-2.35h-.6v14.25Zm12.3-12a8.92,8.92,0,0,0,6.72-2.65,10,10,0,0,0,2.58-7.3v-.4a10,10,0,0,0-2.58-7.3,9.82,9.82,0,0,0-13.42,0,10,10,0,0,0-2.6,7.3v.4a10,10,0,0,0,2.6,7.3A9,9,0,0,0,1298.45,665.53Z" transform="translate(7 13)"/><path class="cls-5" d="M1328.1,668.23a13.21,13.21,0,0,1-7.53-2.1q-3.12-2.1-3.82-7l3-.55a8.65,8.65,0,0,0,1.62,4.17,6.78,6.78,0,0,0,3,2.18,11,11,0,0,0,3.78.65,8.46,8.46,0,0,0,4.82-1.23,3.84,3.84,0,0,0,1.83-3.37,3.1,3.1,0,0,0-1.73-3,16.89,16.89,0,0,0-4.57-1.35l-2.3-.4A17.7,17.7,0,0,1,1322,655a7.48,7.48,0,0,1-2.93-2.22,5.61,5.61,0,0,1-1.07-3.5,5.78,5.78,0,0,1,2.47-4.95,12.88,12.88,0,0,1,13.25.07,8.28,8.28,0,0,1,3.18,5.43l-2.8.6a5.72,5.72,0,0,0-2.38-4.1,8.48,8.48,0,0,0-4.67-1.2,8.12,8.12,0,0,0-4.4,1,3.44,3.44,0,0,0-1.65,3.1,3.17,3.17,0,0,0,1.5,2.92,11.62,11.62,0,0,0,4.1,1.38l2.3.4a22.69,22.69,0,0,1,4.5,1.17,7.7,7.7,0,0,1,3.17,2.18,5.53,5.53,0,0,1,1.18,3.7,6.17,6.17,0,0,1-2.6,5.32A11.82,11.82,0,0,1,1328.1,668.23Z" transform="translate(7 13)"/><path class="cls-5" d="M1346.3,668.23a2.74,2.74,0,1,1,2-.8A2.79,2.79,0,0,1,1346.3,668.23Z" transform="translate(7 13)"/><path class="cls-5" d="M1358,668.23a2.74,2.74,0,1,1,2-.8A2.79,2.79,0,0,1,1358,668.23Z" transform="translate(7 13)"/><path class="cls-5" d="M1369.7,668.23a2.74,2.74,0,1,1,2-.8A2.79,2.79,0,0,1,1369.7,668.23Z" transform="translate(7 13)"/></svg>